<svg id="7bbe61eb-bf9d-4c5d-8976-5207ee1fc129" data-name="f3acdc2d-3561-4057-9d6f-161d04ffdeca" xmlns="http://www.w3.org/2000/svg" viewBox="0 0 981.85 217.52">
  <title>IIT_Logo</title>
  <path d="M332.11,167.44a21.71,21.71,0,1,0,21.5,21.92v-.22a21.55,21.55,0,0,0-21.4-21.7Zm0-5.43a27.13,27.13,0,1,1-27.34,27.2A27.14,27.14,0,0,1,332.11,162Z" transform="translate(0 0)"/>
  <polygon points="5.84 79.56 0 79.56 0 132.01 5.84 132.01 5.84 79.56 5.84 79.56"/>
  <polygon points="27.93 79.56 22.09 79.56 22.09 132.01 52.42 132.01 52.42 126.58 27.93 126.58 27.93 79.56 27.93 79.56"/>
  <polygon points="68.49 79.56 62.65 79.56 62.65 132.01 92.98 132.01 92.98 126.58 68.49 126.58 68.49 79.56 68.49 79.56"/>
  <polygon points="112.11 79.56 106.27 79.56 106.27 132.01 112.11 132.01 112.11 79.56 112.11 79.56"/>
  <polygon points="131.63 132.01 137.47 132.01 137.47 91.59 178.38 134.37 178.38 79.56 172.53 79.56 172.53 120.18 131.63 77.33 131.63 132.01 131.63 132.01"/>
  <path d="M217,78.65a27.13,27.13,0,1,0,27.34,27.24A27.14,27.14,0,0,0,217,78.65Zm0,5.42A21.71,21.71,0,1,1,195.48,106v-.2a21.55,21.55,0,0,1,21.39-21.71H217Z" transform="translate(0 0)"/>
  <polygon points="264.18 79.56 258.34 79.56 258.34 132.01 264.18 132.01 264.18 79.56 264.18 79.56"/>
  <polygon points="360.63 79.56 354.78 79.56 354.78 132.01 360.63 132.01 360.63 79.56 360.63 79.56"/>
  <polygon points="380.14 132.01 385.99 132.01 385.99 91.59 426.89 134.37 426.89 79.56 421.05 79.56 421.05 120.18 380.14 77.33 380.14 132.01 380.14 132.01"/>
  <path d="M473.28,86.79c-2.78-5.15-9.59-8.14-15.44-8.14-7.79,0-15.3,5.21-15.3,13.35,0,7.52,3.78,9.51,9.9,12.3l6,2.52c4.87,2.22,10.91,4.31,10.91,10.43,0,5.91-5.77,10.23-11.4,10.23s-11.61-4.38-12.38-9.74l-5.7,1.6c1.67,8.14,9.8,13.57,18.21,13.57,9.12,0,17.12-7,17.12-16.21,0-8.35-5.78-11.76-12.59-14.75l-4.85-2c-3.55-1.6-9.34-3.27-9.34-7.79,0-4.8,4.66-8.14,9.32-8.14,4.46,0,8.83,2.09,10.92,5.71l4.66-3Z" transform="translate(0 0)"/>
  <path d="M310,86.89c-2.78-5.14-9.59-8.14-15.44-8.14-7.79,0-15.3,5.22-15.3,13.36,0,7.51,3.78,9.51,9.9,12.3l6,2.52C300,109.15,306,111.24,306,117.36c0,5.91-5.78,10.23-11.41,10.23s-11.61-4.38-12.38-9.74l-5.7,1.59c1.67,8.15,9.8,13.58,18.22,13.58,9.11,0,17.11-7,17.11-16.22,0-8.34-5.78-11.75-12.59-14.74l-4.85-2c-3.55-1.6-9.34-3.27-9.34-7.79,0-4.8,4.66-8.1,9.33-8.14s8.82,2.09,10.91,5.71l4.66-3Z" transform="translate(0 0)"/>
  <polygon points="505.54 84.98 522.51 84.98 522.51 79.56 482.86 79.56 482.86 84.98 499.69 84.98 499.69 132.01 505.54 132.01 505.54 84.98 505.54 84.98"/>
  <polygon points="541.91 79.56 536.07 79.56 536.07 132.01 541.91 132.01 541.91 79.56 541.91 79.56"/>
  <polygon points="577.94 84.98 594.91 84.98 594.91 79.56 555.26 79.56 555.26 84.98 572.1 84.98 572.1 132.01 577.94 132.01 577.94 84.98 577.94 84.98"/>
  <path d="M614,79.55h-5.84v32.84c0,6,.55,10.77,5.14,15.16a19.61,19.61,0,0,0,13.57,5.34,19.27,19.27,0,0,0,14.12-6c4.18-4.32,4.59-8.84,4.59-14.54V79.55h-5.84v31.23c0,4.11.21,8.7-2.57,12a13.9,13.9,0,0,1-10.3,4.66c-3.83,0-8.28-1.81-10.57-5-2.44-3.34-2.3-7.79-2.3-11.69Z" transform="translate(0 0)"/>
  <polygon points="678.67 84.98 695.98 84.98 695.98 79.56 656 79.56 656 84.98 672.83 84.98 672.83 132.01 678.67 132.01 678.67 84.98 678.67 84.98"/>
  <polygon points="490.66 215.16 521.53 215.16 521.53 209.73 496.5 209.73 496.5 191.01 520.9 191.01 520.9 185.59 496.5 185.59 496.5 168.13 521.53 168.13 521.53 162.7 490.66 162.7 490.66 215.16 490.66 215.16"/>
  <polygon points="709.01 132.01 739.88 132.01 739.88 126.58 714.85 126.58 714.85 107.86 739.26 107.86 739.26 102.44 714.85 102.44 714.85 84.98 739.88 84.98 739.88 79.56 709.01 79.56 709.01 132.01 709.01 132.01"/>
  <polygon points="460.79 168.13 477.76 168.13 477.76 162.7 438.12 162.7 438.12 168.13 454.95 168.13 454.95 215.16 460.79 215.16 460.79 168.13 460.79 168.13"/>
  <path d="M576.58,166.94a25.25,25.25,0,0,0-15.65-5.15,27.42,27.42,0,0,0-27.33,27.34c0,14.89,12.52,26.93,27.33,26.93a27,27,0,0,0,15.65-5.17v-7.24a22.94,22.94,0,0,1-15.86,7c-11.75,0-21.28-10.15-21.28-21.7s9.46-21.71,21.15-21.71a22.4,22.4,0,0,1,16,7v-7.3Z" transform="translate(0 0)"/>
  <polygon points="600.15 185.57 600.15 162.57 594.31 162.57 594.31 215.02 600.15 215.02 600.15 190.99 628.87 190.99 628.87 215.02 634.72 215.02 634.72 162.57 628.87 162.57 628.87 185.57 600.15 185.57 600.15 185.57"/>
  <polygon points="652.86 215.16 658.7 215.16 658.7 174.74 699.61 217.52 699.61 162.7 693.76 162.7 693.76 203.33 652.86 160.48 652.86 215.16 652.86 215.16"/>
  <path d="M739.32,161.79A27.14,27.14,0,1,0,766.65,189,27.14,27.14,0,0,0,739.32,161.79Zm0,5.43a21.71,21.71,0,1,1-21.5,21.92v-.25a21.55,21.55,0,0,1,21.39-21.71h.11Z" transform="translate(0 0)"/>
  <polygon points="786.37 162.7 780.52 162.7 780.52 215.16 810.85 215.16 810.85 209.73 786.37 209.73 786.37 162.7 786.37 162.7"/>
  <path d="M842.38,161.79A27.14,27.14,0,1,0,869.72,189,27.14,27.14,0,0,0,842.38,161.79Zm0,5.43a21.71,21.71,0,1,1-21.49,21.93v-.26a21.55,21.55,0,0,1,21.39-21.71h.1Z" transform="translate(0 0)"/>
  <path d="M910.48,188.79v5.42h15.58c0,9.74-9.6,16.42-18.72,16.42-5.49,0-11-2.85-14.88-6.68a21.11,21.11,0,0,1-6.13-14.82c0-11.82,9.47-21.91,21.44-21.91,7.72,0,13.63,3.69,18,9.88l4.25-4c-5.57-7.23-13-11.34-22.2-11.34A27.14,27.14,0,1,0,906.49,216h1a26,26,0,0,0,19.42-8.77c4.79-5.57,5.56-11.41,5.42-18.5Z" transform="translate(0 0)"/>
  <polygon points="958.82 192.62 958.82 215.16 964.67 215.16 964.67 192.62 981.85 162.7 975.1 162.7 961.75 186.07 948.39 162.7 941.64 162.7 958.82 192.62 958.82 192.62"/>
  <polygon points="373.44 215.44 379.31 215.44 379.29 190.62 403.49 190.62 403.49 185.2 379.29 185.2 379.29 168.41 404.11 168.41 404.11 162.99 373.44 162.99 373.44 215.44 373.44 215.44"/>
  <path d="M812.63,134" transform="translate(0 0)" fill="none" stroke="#fff" stroke-width="0.41"/>
  <path d="M735.7.57" transform="translate(0 0)" fill="none" stroke="#fff" stroke-width="0.41"/>
  <polygon points="819.62 40.9 826.6 44.34 827.7 36.23 820.12 33.13 819.62 40.9" fill="#e31837"/>
  <path d="M744.63,0c-.75,0-.85.38,0,.63,2.11.66,68.38,22,68.38,22V15.4S749.54,1,747.91.63A26,26,0,0,0,744.63,0Z" transform="translate(0 0)" fill="#e31837"/>
  <polygon points="829.98 19.31 821.14 17.27 820.64 25.07 828.85 27.69 829.98 19.31" fill="#e31837"/>
  <polygon points="832.57 0.05 822.25 0.06 821.69 8.78 831.24 9.98 832.57 0.05" fill="#e31837"/>
  <polygon points="849.26 23.76 839.56 21.52 837.62 30.49 846.37 33.28 849.26 23.76" fill="#e31837"/>
  <path d="M813,.06H757c-.42,0-.71,0-.77.11s0,.4.67.48c1.83.26,56.09,7,56.09,7Z" transform="translate(0 0)" fill="#e31837"/>
  <polygon points="833.85 47.91 840.87 51.37 843.51 42.69 835.68 39.49 833.85 47.91" fill="#e31837"/>
  <polygon points="856.47 0.03 844.21 0.04 841.77 11.3 852.63 12.67 856.47 0.03" fill="#e31837"/>
  <polygon points="852.23 46.26 848.51 55.13 856.38 59.01 861.53 50.06 852.23 46.26" fill="#e31837"/>
  <path d="M738,.08c-.52.34.52.67,1.36,1.1.5.29,73.66,36.45,73.66,36.45V30.21S741.41,1.13,740.62.82C739.48.35,738.38-.21,738,.08Z" transform="translate(0 0)" fill="#e31837"/>
  <polygon points="871.6 0.02 865.62 14.3 881.01 16.23 890.36 0.01 871.6 0.02" fill="#e31837"/>
  <path d="M813,134.34V44.73L734.64.34c-1.1-.64-.65.31-.24,1,7.25,12.54,77.49,133,77.74,133.44C812.75,135.69,813,135.41,813,134.34Z" transform="translate(0 0)" fill="#e31837"/>
  <polygon points="860.56 26.37 856.33 36.46 867.34 39.97 873.46 29.35 860.56 26.37" fill="#e31837"/>
  <path d="M825.57,52l-6.43-3.71s-4.79,81.36-4.78,82.09c-.1,1.06-.13,1.83.41,1.83s.49-1.9.6-2.71C815.48,128.42,825.57,52,825.57,52Z" transform="translate(0 0)" fill="#e31837"/>
  <path d="M845.11,63.24s-21.17,50.06-21.89,51.94c-.24.63-.19.8,0,.91s.35-.17.6-.59c2-3.41,27.86-48.45,27.86-48.45Z" transform="translate(0 0)" fill="#e31837"/>
  <path d="M838.48,59.39l-6.28-3.62s-14.71,69-15,70.09a2.17,2.17,0,0,0,0,.51c.07.28.18.56.55.09a20,20,0,0,0,1.07-3.28C818.9,122.59,838.48,59.39,838.48,59.39Z" transform="translate(0 0)" fill="#e31837"/>
</svg>
